<mxfile host="app.diagrams.net" agent="Mozilla/5.0 (Windows NT 10.0; Win64; x64) AppleWebKit/537.36 (KHTML, like Gecko) Chrome/138.0.0.0 Safari/537.36" version="28.0.5">
  <diagram name="Page-1" id="TTpM_ToEAvBPiu1eLd7P">
    <mxGraphModel dx="1426" dy="743" grid="1" gridSize="10" guides="1" tooltips="1" connect="1" arrows="1" fold="1" page="1" pageScale="1" pageWidth="827" pageHeight="1169" math="0" shadow="0">
      <root>
        <mxCell id="0" />
        <mxCell id="1" parent="0" />
        <mxCell id="p-KePNE3PvP1S--m1Yjw-2" value="Image" style="rounded=0;whiteSpace=wrap;html=1;" vertex="1" parent="1">
          <mxGeometry x="90" y="280" width="120" height="60" as="geometry" />
        </mxCell>
        <mxCell id="p-KePNE3PvP1S--m1Yjw-3" value="" style="endArrow=classic;html=1;rounded=0;exitX=1;exitY=0.5;exitDx=0;exitDy=0;" edge="1" parent="1" source="p-KePNE3PvP1S--m1Yjw-2">
          <mxGeometry width="50" height="50" relative="1" as="geometry">
            <mxPoint x="390" y="410" as="sourcePoint" />
            <mxPoint x="300" y="310" as="targetPoint" />
          </mxGeometry>
        </mxCell>
        <mxCell id="p-KePNE3PvP1S--m1Yjw-4" value="Analyse BRISQUE" style="rounded=1;whiteSpace=wrap;html=1;glass=0;" vertex="1" parent="1">
          <mxGeometry x="300" y="280" width="120" height="60" as="geometry" />
        </mxCell>
        <mxCell id="p-KePNE3PvP1S--m1Yjw-5" value="" style="endArrow=classic;html=1;rounded=0;" edge="1" parent="1">
          <mxGeometry width="50" height="50" relative="1" as="geometry">
            <mxPoint x="420" y="310" as="sourcePoint" />
            <mxPoint x="540" y="310" as="targetPoint" />
          </mxGeometry>
        </mxCell>
        <mxCell id="p-KePNE3PvP1S--m1Yjw-6" value="Réussi" style="edgeLabel;html=1;align=center;verticalAlign=middle;resizable=0;points=[];" vertex="1" connectable="0" parent="p-KePNE3PvP1S--m1Yjw-5">
          <mxGeometry x="-0.1667" relative="1" as="geometry">
            <mxPoint as="offset" />
          </mxGeometry>
        </mxCell>
        <mxCell id="p-KePNE3PvP1S--m1Yjw-7" value="Analyse d&#39;exposition" style="rounded=1;whiteSpace=wrap;html=1;glass=0;" vertex="1" parent="1">
          <mxGeometry x="540" y="280" width="120" height="60" as="geometry" />
        </mxCell>
        <mxCell id="p-KePNE3PvP1S--m1Yjw-8" value="" style="endArrow=classic;html=1;rounded=0;" edge="1" parent="1">
          <mxGeometry width="50" height="50" relative="1" as="geometry">
            <mxPoint x="660" y="310" as="sourcePoint" />
            <mxPoint x="740" y="310" as="targetPoint" />
          </mxGeometry>
        </mxCell>
        <mxCell id="p-KePNE3PvP1S--m1Yjw-9" value="Réussi" style="edgeLabel;html=1;align=center;verticalAlign=middle;resizable=0;points=[];" vertex="1" connectable="0" parent="p-KePNE3PvP1S--m1Yjw-8">
          <mxGeometry x="-0.15" y="4" relative="1" as="geometry">
            <mxPoint y="4" as="offset" />
          </mxGeometry>
        </mxCell>
        <mxCell id="p-KePNE3PvP1S--m1Yjw-11" value="Bonne image&lt;br&gt;&lt;font style=&quot;font-size: 10px;&quot;&gt;(Avec tags pour identifier les corrections)&lt;/font&gt;" style="ellipse;whiteSpace=wrap;html=1;aspect=fixed;" vertex="1" parent="1">
          <mxGeometry x="740" y="260" width="100" height="100" as="geometry" />
        </mxCell>
        <mxCell id="p-KePNE3PvP1S--m1Yjw-12" value="" style="endArrow=classic;html=1;rounded=0;exitX=0.75;exitY=1;exitDx=0;exitDy=0;" edge="1" parent="1" source="p-KePNE3PvP1S--m1Yjw-4">
          <mxGeometry width="50" height="50" relative="1" as="geometry">
            <mxPoint x="660" y="350" as="sourcePoint" />
            <mxPoint x="390" y="400" as="targetPoint" />
          </mxGeometry>
        </mxCell>
        <mxCell id="p-KePNE3PvP1S--m1Yjw-13" value="Échoué" style="edgeLabel;html=1;align=center;verticalAlign=middle;resizable=0;points=[];" vertex="1" connectable="0" parent="p-KePNE3PvP1S--m1Yjw-12">
          <mxGeometry x="-0.0667" y="-1" relative="1" as="geometry">
            <mxPoint as="offset" />
          </mxGeometry>
        </mxCell>
        <mxCell id="p-KePNE3PvP1S--m1Yjw-14" value="Correction floue" style="rounded=1;whiteSpace=wrap;html=1;" vertex="1" parent="1">
          <mxGeometry x="300" y="400" width="120" height="60" as="geometry" />
        </mxCell>
        <mxCell id="p-KePNE3PvP1S--m1Yjw-15" value="" style="endArrow=classic;html=1;rounded=0;exitX=0.25;exitY=0;exitDx=0;exitDy=0;entryX=0.25;entryY=1;entryDx=0;entryDy=0;" edge="1" parent="1" source="p-KePNE3PvP1S--m1Yjw-14" target="p-KePNE3PvP1S--m1Yjw-4">
          <mxGeometry width="50" height="50" relative="1" as="geometry">
            <mxPoint x="660" y="350" as="sourcePoint" />
            <mxPoint x="710" y="300" as="targetPoint" />
          </mxGeometry>
        </mxCell>
        <mxCell id="p-KePNE3PvP1S--m1Yjw-16" value="" style="endArrow=classic;html=1;rounded=0;exitX=0.5;exitY=0;exitDx=0;exitDy=0;" edge="1" parent="1">
          <mxGeometry width="50" height="50" relative="1" as="geometry">
            <mxPoint x="330" y="280" as="sourcePoint" />
            <mxPoint x="330" y="210" as="targetPoint" />
          </mxGeometry>
        </mxCell>
        <mxCell id="p-KePNE3PvP1S--m1Yjw-18" value="Échoué x2" style="edgeLabel;html=1;align=center;verticalAlign=middle;resizable=0;points=[];" vertex="1" connectable="0" parent="p-KePNE3PvP1S--m1Yjw-16">
          <mxGeometry x="0.2571" relative="1" as="geometry">
            <mxPoint as="offset" />
          </mxGeometry>
        </mxCell>
        <mxCell id="p-KePNE3PvP1S--m1Yjw-17" value="Correction noise" style="rounded=1;whiteSpace=wrap;html=1;" vertex="1" parent="1">
          <mxGeometry x="300" y="150" width="120" height="60" as="geometry" />
        </mxCell>
        <mxCell id="p-KePNE3PvP1S--m1Yjw-19" value="" style="endArrow=classic;html=1;rounded=0;exitX=0.75;exitY=1;exitDx=0;exitDy=0;entryX=0.75;entryY=0;entryDx=0;entryDy=0;" edge="1" parent="1" source="p-KePNE3PvP1S--m1Yjw-17" target="p-KePNE3PvP1S--m1Yjw-4">
          <mxGeometry width="50" height="50" relative="1" as="geometry">
            <mxPoint x="660" y="350" as="sourcePoint" />
            <mxPoint x="710" y="300" as="targetPoint" />
          </mxGeometry>
        </mxCell>
        <mxCell id="p-KePNE3PvP1S--m1Yjw-20" value="Correction exposition" style="rounded=1;whiteSpace=wrap;html=1;" vertex="1" parent="1">
          <mxGeometry x="540" y="150" width="120" height="60" as="geometry" />
        </mxCell>
        <mxCell id="p-KePNE3PvP1S--m1Yjw-21" value="" style="endArrow=classic;html=1;rounded=0;exitX=0.25;exitY=0;exitDx=0;exitDy=0;entryX=0.25;entryY=1;entryDx=0;entryDy=0;" edge="1" parent="1" source="p-KePNE3PvP1S--m1Yjw-7" target="p-KePNE3PvP1S--m1Yjw-20">
          <mxGeometry width="50" height="50" relative="1" as="geometry">
            <mxPoint x="660" y="350" as="sourcePoint" />
            <mxPoint x="710" y="300" as="targetPoint" />
          </mxGeometry>
        </mxCell>
        <mxCell id="p-KePNE3PvP1S--m1Yjw-22" value="Échoué" style="edgeLabel;html=1;align=center;verticalAlign=middle;resizable=0;points=[];" vertex="1" connectable="0" parent="p-KePNE3PvP1S--m1Yjw-21">
          <mxGeometry x="-0.0571" relative="1" as="geometry">
            <mxPoint as="offset" />
          </mxGeometry>
        </mxCell>
        <mxCell id="p-KePNE3PvP1S--m1Yjw-23" value="" style="endArrow=classic;html=1;rounded=0;exitX=0.75;exitY=1;exitDx=0;exitDy=0;entryX=0.75;entryY=0;entryDx=0;entryDy=0;" edge="1" parent="1" source="p-KePNE3PvP1S--m1Yjw-20" target="p-KePNE3PvP1S--m1Yjw-7">
          <mxGeometry width="50" height="50" relative="1" as="geometry">
            <mxPoint x="660" y="350" as="sourcePoint" />
            <mxPoint x="710" y="300" as="targetPoint" />
          </mxGeometry>
        </mxCell>
        <mxCell id="p-KePNE3PvP1S--m1Yjw-24" value="" style="endArrow=classic;html=1;rounded=0;exitX=1;exitY=1;exitDx=0;exitDy=0;entryX=0;entryY=0.5;entryDx=0;entryDy=0;" edge="1" parent="1" source="p-KePNE3PvP1S--m1Yjw-4" target="p-KePNE3PvP1S--m1Yjw-26">
          <mxGeometry width="50" height="50" relative="1" as="geometry">
            <mxPoint x="660" y="360" as="sourcePoint" />
            <mxPoint x="543.913043478261" y="406.086956521739" as="targetPoint" />
          </mxGeometry>
        </mxCell>
        <mxCell id="p-KePNE3PvP1S--m1Yjw-31" value="Échoué" style="edgeLabel;html=1;align=center;verticalAlign=middle;resizable=0;points=[];" vertex="1" connectable="0" parent="p-KePNE3PvP1S--m1Yjw-24">
          <mxGeometry x="-0.0643" y="-5" relative="1" as="geometry">
            <mxPoint x="-3" y="-6" as="offset" />
          </mxGeometry>
        </mxCell>
        <mxCell id="p-KePNE3PvP1S--m1Yjw-26" value="Image de faible qualité" style="ellipse;whiteSpace=wrap;html=1;aspect=fixed;" vertex="1" parent="1">
          <mxGeometry x="560" y="390" width="80" height="80" as="geometry" />
        </mxCell>
        <mxCell id="p-KePNE3PvP1S--m1Yjw-27" value="" style="endArrow=classic;html=1;rounded=0;exitX=0.5;exitY=1;exitDx=0;exitDy=0;entryX=0.5;entryY=0;entryDx=0;entryDy=0;" edge="1" parent="1" source="p-KePNE3PvP1S--m1Yjw-7" target="p-KePNE3PvP1S--m1Yjw-26">
          <mxGeometry width="50" height="50" relative="1" as="geometry">
            <mxPoint x="660" y="360" as="sourcePoint" />
            <mxPoint x="710" y="310" as="targetPoint" />
          </mxGeometry>
        </mxCell>
        <mxCell id="p-KePNE3PvP1S--m1Yjw-28" value="Échoué" style="edgeLabel;html=1;align=center;verticalAlign=middle;resizable=0;points=[];" vertex="1" connectable="0" parent="p-KePNE3PvP1S--m1Yjw-27">
          <mxGeometry x="-0.52" y="5" relative="1" as="geometry">
            <mxPoint x="-5" y="8" as="offset" />
          </mxGeometry>
        </mxCell>
      </root>
    </mxGraphModel>
  </diagram>
</mxfile>
